# xmcd
#
# Track frame offsets:
#	150
#	9894
#	25574
#	32231
#	47709
#	60696
#	74242
#	86989
#	108234
#	124356
#	145834
#
# Disc length: 2232 seconds
#
# Revision: 1
# Processed by: cddbd v1.5.2PL0 Copyright (c) Steve Scherf et al.
# Submitted via: audiograbber 1.83.01
#
DISCID=9908b60b
DTITLE=Kris Kristofferson - The Complete Monument and Columbia Albums Collection 
DTITLE=(CD 12) - Live At The Big Sur Folk Festival [remastered 2016]
DYEAR=2016
DGENRE=Singer/Songwriter
TTITLE0=If You Don't Like Hank Williams [live]
TTITLE1=The Law Is For Protection Of The People [live]
TTITLE2=Band Introductions [live]
TTITLE3=The Pilgrim - Chapter 33 [live]
TTITLE4=Duvalier's Dream [live]
TTITLE5=Help Me Make It Through The Night [live]
TTITLE6=Shake Hands With The Devil [live]
TTITLE7=To Beat The Devil [live]
TTITLE8=Loving Her Was Easier (Than Anything I'll Ever Do Again) [live]
TTITLE9=Sunday Mornin' Comin' Down [live]
TTITLE10=Me And Bobby McGee [live]
EXTD=
EXTT0=
EXTT1=
EXTT2=
EXTT3=
EXTT4=
EXTT5=
EXTT6=
EXTT7=
EXTT8=
EXTT9=
EXTT10=
PLAYORDER=
